<?xml version="1.0" encoding="UTF-8" standalone="no"?>
<!-- Created with Inkscape (http://www.inkscape.org/) -->

<svg
   width="1024"
   height="1024"
   viewBox="0 0 1024 1024"
   version="1.1"
   id="svg1"
   inkscape:version="1.4 (86a8ad7, 2024-10-11)"
   sodipodi:docname="dark_angels.svg"
   xml:space="preserve"
   xmlns:inkscape="http://www.inkscape.org/namespaces/inkscape"
   xmlns:sodipodi="http://sodipodi.sourceforge.net/DTD/sodipodi-0.dtd"
   xmlns="http://www.w3.org/2000/svg"
   xmlns:svg="http://www.w3.org/2000/svg"
   xmlns:rdf="http://www.w3.org/1999/02/22-rdf-syntax-ns#"
   xmlns:cc="http://creativecommons.org/ns#"
   xmlns:dc="http://purl.org/dc/elements/1.1/"><title
     id="title1">Dark Angels Chapter Badge</title><sodipodi:namedview
     id="namedview1"
     pagecolor="#ffffff"
     bordercolor="#000000"
     borderopacity="0.25"
     inkscape:showpageshadow="2"
     inkscape:pageopacity="0.0"
     inkscape:pagecheckerboard="0"
     inkscape:deskcolor="#d1d1d1"
     inkscape:document-units="px"
     inkscape:zoom="0.35355339"
     inkscape:cx="550.12908"
     inkscape:cy="796.20224"
     inkscape:window-width="1920"
     inkscape:window-height="1017"
     inkscape:window-x="-8"
     inkscape:window-y="-8"
     inkscape:window-maximized="1"
     inkscape:current-layer="svg1"
     showguides="false" /><defs
     id="defs1" /><path
     id="vol_with_broadsword_recumbent"
     style="display:inline;fill:#ffffff;stroke-width:0;stroke-linecap:square;stroke:none"
     d="m 511.99987,0 -91.07377,106.1292 46.30454,53.98058 v 176.25477 h -23.37528 l -33.9731,-25.70296 -69.72926,52.74268 69.72926,52.7922 33.9731,-25.7027 h 23.37528 L 438.45731,867.60437 511.99987,1024 585.54268,867.60437 556.76934,390.49377 h 23.37503 l 33.97336,25.7027 69.72925,-52.7922 -69.72925,-52.74268 -33.97336,25.70296 H 556.76934 V 160.10978 L 603.07388,106.1292 Z M 13.54471,296.2502 c 0,36.92582 7.76049,107.79437 12.6286,141.09297 l 152.53262,-8.0229 8.17151,34.4188 -150.89842,22.1866 c 11.95058,39.4926 40.96733,95.4274 59.57693,128.5138 l 116.87562,-62.6473 24.26654,36.4494 -95.63,81.1692 c 25.34164,30.3497 55.39977,61.9459 86.07202,84.5864 l 89.83588,-95.6797 23.91992,24.0191 -46.15595,120.788 c 32.17663,15.6262 78.22583,27.6868 112.76514,36.3008 l 39.47031,-370.7834 c -62.07628,-30.8241 -122.5214,-72.5456 -122.5214,-171.59914 z m 996.91059,0 -310.90934,0.79263 c 0,99.05354 -60.44513,140.77504 -122.52141,171.59914 l 39.47031,370.7834 c 34.53931,-8.614 80.58851,-20.6746 112.76514,-36.3008 l -46.15595,-120.788 23.91993,-24.0191 89.83587,95.6797 c 30.67224,-22.6405 60.73034,-54.2367 86.07204,-84.5864 l -95.63002,-81.1692 24.26655,-36.4494 116.87557,62.6473 c 18.6096,-33.0864 47.6264,-89.0212 59.577,-128.5138 l -150.8984,-22.1866 8.1715,-34.4188 152.5326,8.0229 c 4.86811,-33.2986 12.62861,-104.16715 12.62861,-141.09297 z"
     inkscape:label="vol_with_broadsword_recumbent" /><metadata
     id="metadata1"><rdf:RDF><cc:Work
         rdf:about=""><dc:date>2024-11-18</dc:date><dc:creator><cc:Agent><dc:title>Jessie Kirk</dc:title></cc:Agent></dc:creator><dc:source>Adrian Wood, How to Paint Space Marines</dc:source><cc:license
           rdf:resource="http://creativecommons.org/licenses/by-nc-sa/4.0/" /><dc:title>Dark Angels Chapter Badge</dc:title></cc:Work><cc:License
         rdf:about="http://creativecommons.org/licenses/by-nc-sa/4.0/"><cc:permits
           rdf:resource="http://creativecommons.org/ns#Reproduction" /><cc:permits
           rdf:resource="http://creativecommons.org/ns#Distribution" /><cc:requires
           rdf:resource="http://creativecommons.org/ns#Notice" /><cc:requires
           rdf:resource="http://creativecommons.org/ns#Attribution" /><cc:prohibits
           rdf:resource="http://creativecommons.org/ns#CommercialUse" /><cc:permits
           rdf:resource="http://creativecommons.org/ns#DerivativeWorks" /><cc:requires
           rdf:resource="http://creativecommons.org/ns#ShareAlike" /></cc:License></rdf:RDF></metadata></svg>
