<?xml version="1.0" encoding="UTF-8" standalone="no"?>
<!-- Created with Inkscape (http://www.inkscape.org/) -->

<svg
   width="1024"
   height="1024"
   viewBox="0 0 1024 1024"
   version="1.1"
   id="svg1"
   inkscape:version="1.4 (86a8ad7, 2024-10-11)"
   sodipodi:docname="iron_hands.svg"
   xml:space="preserve"
   xmlns:inkscape="http://www.inkscape.org/namespaces/inkscape"
   xmlns:sodipodi="http://sodipodi.sourceforge.net/DTD/sodipodi-0.dtd"
   xmlns="http://www.w3.org/2000/svg"
   xmlns:svg="http://www.w3.org/2000/svg"
   xmlns:rdf="http://www.w3.org/1999/02/22-rdf-syntax-ns#"
   xmlns:cc="http://creativecommons.org/ns#"
   xmlns:dc="http://purl.org/dc/elements/1.1/"><title
     id="title1">Iron Hands Chapter Badge</title><sodipodi:namedview
     id="namedview1"
     pagecolor="#ffffff"
     bordercolor="#000000"
     borderopacity="0.25"
     inkscape:showpageshadow="2"
     inkscape:pageopacity="0.0"
     inkscape:pagecheckerboard="0"
     inkscape:deskcolor="#d1d1d1"
     inkscape:document-units="px"
     inkscape:zoom="0.25"
     inkscape:cx="854"
     inkscape:cy="90"
     inkscape:window-width="1920"
     inkscape:window-height="1017"
     inkscape:window-x="-8"
     inkscape:window-y="-8"
     inkscape:window-maximized="1"
     inkscape:current-layer="svg1"
     showguides="false" /><defs
     id="defs1" /><metadata
     id="metadata1"><rdf:RDF><cc:Work
         rdf:about=""><dc:date>2024-11-18</dc:date><dc:creator><cc:Agent><dc:title>Jessie Kirk</dc:title></cc:Agent></dc:creator><dc:source>Adrian Wood, How to Paint Space Marines</dc:source><cc:license
           rdf:resource="http://creativecommons.org/licenses/by-nc-sa/4.0/" /><dc:title>Iron Hands Chapter Badge</dc:title></cc:Work><cc:License
         rdf:about="http://creativecommons.org/licenses/by-nc-sa/4.0/"><cc:permits
           rdf:resource="http://creativecommons.org/ns#Reproduction" /><cc:permits
           rdf:resource="http://creativecommons.org/ns#Distribution" /><cc:requires
           rdf:resource="http://creativecommons.org/ns#Notice" /><cc:requires
           rdf:resource="http://creativecommons.org/ns#Attribution" /><cc:prohibits
           rdf:resource="http://creativecommons.org/ns#CommercialUse" /><cc:permits
           rdf:resource="http://creativecommons.org/ns#DerivativeWorks" /><cc:requires
           rdf:resource="http://creativecommons.org/ns#ShareAlike" /></cc:License></rdf:RDF></metadata><path
     id="iron_hands_chapter_badge"
     style="display:inline;fill:#ffffff;stroke:none;stroke-width:0;stroke-linecap:square"
     d="M 499.08207,10.114916 C 484.03356,135.47682 486.04304,204.23791 487.82848,318.12212 c -4.20848,4.84616 -9.18215,5.10117 -13.77322,3.06072 -6.37652,-110.69592 -8.54449,-183.89812 -28.31164,-263.986864 -15.94125,-10.20241 -31.11727,-6.24895 -49.73665,1.14777 4.70358,124.983044 -4.45231,197.300014 8.94213,298.644034 -5.35626,3.18823 -6.26401,6.15241 -12.76803,2.07143 -21.73446,-102.92127 -30.31365,-150.97569 -61.97952,-229.63067 -12.11536,0 -22.15923,-0.88522 -32.90271,10.78939 6.4616,98.16706 15.29611,176.79486 33.53658,264.11817 -11.67088,25.70818 22.04298,114.35127 32.12535,146.34072 0,0 -3.6163,18.75357 -3.68241,28.25186 -0.0618,8.8493 0.94142,17.7828 3.06072,26.3748 6.60576,26.7811 24.30417,68.8577 34.74391,92.7302 h -1.07602 l -120.36032,32.4005 89.0119,42.7185 -54.69789,87.1109 0.57358,18.4241 c 62.07312,56.8527 122.49106,96.494 200.24962,145.31232 77.75856,-48.81832 137.28039,-87.69442 199.3529,-144.54712 l 0.57358,-18.4241 -56.86219,-87.1109 89.01191,-42.7185 -108.77502,-29.28 c 17.57035,-69.0025 43.67129,-94.3127 44.65537,-120.5756 -9.30966,-5.4837 -17.8542,-6.3765 -30.22458,-3.8259 0,0 -3.77797,-15.25282 1.53036,-19.51205 46.7153,-37.48264 103.38727,-155.49086 97.94297,-313.72351 -7.0957,-22.29053 -35.33331,-48.48856 -48.85145,-3.0879 -6.12523,36.24654 -11.04821,81.92389 -38.31339,139.78773 -8.62791,0.51638 -11.12228,-0.82333 -14.56558,-11.78333 -5.10118,-123.70397 8.12344,-195.95067 -5.3947,-332.662684 -18.10923,-5.61134 -28.94931,-7.39672 -51.26702,0 C 571.48798,139.83534 574.80335,222.8573 574.29344,335.33865 l -7.65179,-1.53035 c 1.78543,-117.32752 -4.91178,-201.82915 -9.24778,-324.5129135 -19.66774,-14.25474 -40.28363,-10.61488 -58.3118,0.8202695 z"
     sodipodi:nodetypes="cccccccccccssccccccccccccccsccccccccccc"
     inkscape:label="iron_hands_chapter_badge" /></svg>
