<?xml version="1.0" encoding="UTF-8" standalone="no"?>
<!-- Created with Inkscape (http://www.inkscape.org/) -->

<svg
   width="1024"
   height="1024"
   viewBox="0 0 1024 1024"
   version="1.1"
   id="svg1"
   inkscape:version="1.4 (86a8ad7, 2024-10-11)"
   sodipodi:docname="raven_guard.svg"
   xml:space="preserve"
   xmlns:inkscape="http://www.inkscape.org/namespaces/inkscape"
   xmlns:sodipodi="http://sodipodi.sourceforge.net/DTD/sodipodi-0.dtd"
   xmlns="http://www.w3.org/2000/svg"
   xmlns:svg="http://www.w3.org/2000/svg"
   xmlns:rdf="http://www.w3.org/1999/02/22-rdf-syntax-ns#"
   xmlns:cc="http://creativecommons.org/ns#"
   xmlns:dc="http://purl.org/dc/elements/1.1/"><title
     id="title1">Raven Guard Chapter Badge</title><sodipodi:namedview
     id="namedview1"
     pagecolor="#ffffff"
     bordercolor="#000000"
     borderopacity="0.25"
     inkscape:showpageshadow="2"
     inkscape:pageopacity="0.0"
     inkscape:pagecheckerboard="0"
     inkscape:deskcolor="#d1d1d1"
     inkscape:document-units="px"
     inkscape:zoom="0.5"
     inkscape:cx="599"
     inkscape:cy="597"
     inkscape:window-width="1920"
     inkscape:window-height="1017"
     inkscape:window-x="-8"
     inkscape:window-y="-8"
     inkscape:window-maximized="1"
     inkscape:current-layer="svg1"
     showguides="false" /><defs
     id="defs1" /><metadata
     id="metadata1"><rdf:RDF><cc:Work
         rdf:about=""><dc:date>2024-11-18</dc:date><dc:creator><cc:Agent><dc:title>Jessie Kirk</dc:title></cc:Agent></dc:creator><dc:source>Adrian Wood, How to Paint Space Marines</dc:source><cc:license
           rdf:resource="http://creativecommons.org/licenses/by-nc-sa/4.0/" /><dc:title>Raven Guard Chapter Badge</dc:title></cc:Work><cc:License
         rdf:about="http://creativecommons.org/licenses/by-nc-sa/4.0/"><cc:permits
           rdf:resource="http://creativecommons.org/ns#Reproduction" /><cc:permits
           rdf:resource="http://creativecommons.org/ns#Distribution" /><cc:requires
           rdf:resource="http://creativecommons.org/ns#Notice" /><cc:requires
           rdf:resource="http://creativecommons.org/ns#Attribution" /><cc:prohibits
           rdf:resource="http://creativecommons.org/ns#CommercialUse" /><cc:permits
           rdf:resource="http://creativecommons.org/ns#DerivativeWorks" /><cc:requires
           rdf:resource="http://creativecommons.org/ns#ShareAlike" /></cc:License></rdf:RDF></metadata><path
     id="raven_guard_chapter_badge"
     style="display:inline;fill:#ffffff;stroke-width:0;stroke-linecap:square;stroke:none"
     d="M 396.24767,87.643605 C 334.15612,108.7943 278.85214,124.58694 211.04166,140.37614 202.20049,289.92323 162.35144,462.3888 2e-5,592.9306 c 22.07287,23.2523 44.08809,47.7162 69.69938,57.8259 48.86367,-57.6254 103.79622,-146.08399 154.17633,-301.77372 6.40285,-1.17947 12.3018,2.18938 11.62771,10.10866 -42.62925,134.12235 -87.2786,218.20246 -149.1164,331.09436 67.73515,-5.72881 85.93403,-12.9714 116.7688,-26.2825 35.04705,-56.2775 40.27031,-54.93081 105.14103,-273.46954 6.40285,-2.52724 11.2875,-3.04143 16.17386,1.50797 -24.26333,96.71636 -38.92522,150.98059 -78.85863,258.31217 46.16772,-7.4138 67.57188,-13.316 108.17926,-32.8615 6.90834,-21.56751 10.27056,-37.5742 19.20083,-107.16281 6.23431,-6.57133 12.972,-9.09217 20.2173,-9.09217 2.86444,51.3911 2.19979,87.61337 16.18501,117.77408 -38.0799,14.6591 -79.19793,39.93589 -161.76065,80.8803 -7.66656,24.7687 -16.08779,43.9783 -19.45772,69.2526 28.13865,21.3989 51.22096,36.7266 80.62338,50.5432 11.71041,0 13.56671,0.2505 12.3873,-20.4742 0,0 -55.94766,-46.5029 0.24591,-82.6451 3.05333,28.2987 6.1137,34.8654 13.71644,45.4721 7.73032,-5.4676 12.17307,-9.6784 17.12325,-17.1679 -1.91475,-18.6981 -6.68593,-30.9628 -2.52433,-47.5162 25.90592,-12.5863 39.29203,-18.3764 62.69593,-25.9586 4.74184,19.7125 6.62897,31.1993 5.65189,47.3375 -26.41788,32.5345 -64.98435,55.4275 -83.53871,116.914 20.90192,18.0874 37.15853,28.3008 62.70708,28.5164 18.90739,-36.0122 27.08974,-66.6603 45.99713,-101.6002 5.95866,-2.165 10.12581,-1.8226 14.65474,1.0164 -14.98764,37.3377 -19.91793,55.9747 -36.69273,120.8346 28.56373,15.1646 57.1329,39.73489 90.77675,52.04 33.64386,-12.30511 62.21302,-36.8754 90.77676,-52.04 -16.77481,-64.8599 -21.70509,-83.49691 -36.69273,-120.8346 4.52893,-2.839 8.70729,-3.1814 14.66595,-1.0164 18.90739,34.9399 27.08968,65.588 45.99707,101.6002 25.54854,-0.2156 41.80521,-10.429 62.70713,-28.5164 -18.55436,-61.4865 -57.13204,-84.3795 -83.54992,-116.914 -0.97708,-16.1382 0.91005,-27.625 5.6519,-47.3375 23.40389,7.5822 36.80121,13.3723 62.70713,25.9586 4.16161,16.5534 -0.62079,28.8181 -2.53554,47.5162 4.95019,7.4895 9.40408,11.7003 17.13441,17.1679 7.60274,-10.6067 10.65196,-17.1734 13.70536,-45.4721 56.1932,36.1422 0.2568,82.6451 0.2568,82.6451 -1.1795,20.7249 0.6656,20.4742 12.3761,20.4742 29.4024,-13.8166 52.4847,-29.1443 80.6234,-50.5432 -3.3699,-25.2743 -11.7912,-44.4839 -19.4578,-69.2526 -82.56271,-40.94441 -123.66953,-66.2212 -161.74944,-80.8803 13.98512,-30.1607 13.30943,-66.38298 16.17386,-117.77408 7.24531,0 13.98294,2.52084 20.21725,9.09217 8.93027,69.58861 12.30369,85.5953 19.21204,107.16281 40.60739,19.5455 62.00029,25.4477 108.16809,32.8615 -39.9334,-107.33158 -54.5953,-161.59581 -78.8586,-258.31217 4.8864,-4.5494 9.782,-4.03521 16.185,-1.50796 64.8707,218.53853 70.094,217.19203 105.141,273.46953 30.8347,13.31109 49.0225,20.55369 116.7577,26.2825 -61.8378,-112.8919 -106.4872,-196.97201 -149.1165,-331.09436 -0.674,-7.91928 5.2249,-11.28813 11.6277,-10.10866 50.3801,155.68972 105.3128,244.14832 154.1764,301.77372 C 979.91198,640.6468 1001.9273,616.1829 1024,592.9306 861.64858,462.3888 821.79958,289.92323 812.95838,140.37614 745.14788,124.58694 689.84397,108.7943 627.75242,87.643605 617.44818,112.39757 617.158,123.57503 624.7254,136.17628 c 92.83138,102.36472 9.20598,138.21327 -12.16387,122.17495 1.46943,-35.36776 -0.39403,-66.46915 -26.14846,-101.05291 -16.5871,-12.94204 -31.94922,-17.98069 -47.39334,-18.26258 -29.48419,-0.53815 -59.2668,16.27434 -98.43919,28.62813 -10.12724,7.74439 -33.47955,5.83805 -78.6352,50.04058 52.42348,-2.02548 74.1077,0.23847 109.01697,4.64662 -11.36778,20.70954 -9.77644,52.87825 -45.77374,67.30904 0,0 -142.14446,0.74071 -25.90266,-153.48383 7.56739,-12.60125 7.26606,-23.77871 -3.03818,-48.532675 z m 124.35307,79.361275 c 4.21238,7.58226 2.85872,8.08604 1.00527,16.1738 -11.62617,1.34795 -10.61507,1.6797 -27.80157,-3.03818 13.98511,-9.43571 15.8441,-5.72184 26.7963,-13.13562 z"
     sodipodi:nodetypes="ccccccccccccccccccccccccccccccccccccccccccccccccccccccccccccccccsccccccccccc"
     inkscape:label="raven_guard_chapter_badge" /></svg>
