<?xml version="1.0" encoding="UTF-8" standalone="no"?>
<!-- Created with Inkscape (http://www.inkscape.org/) -->

<svg
   width="1024"
   height="1024"
   viewBox="0 0 1024 1024"
   version="1.1"
   id="svg1"
   inkscape:version="1.4 (86a8ad7, 2024-10-11)"
   sodipodi:docname="space_wolves_of_gunnar_redmoon.svg"
   xml:space="preserve"
   xmlns:inkscape="http://www.inkscape.org/namespaces/inkscape"
   xmlns:sodipodi="http://sodipodi.sourceforge.net/DTD/sodipodi-0.dtd"
   xmlns="http://www.w3.org/2000/svg"
   xmlns:svg="http://www.w3.org/2000/svg"
   xmlns:rdf="http://www.w3.org/1999/02/22-rdf-syntax-ns#"
   xmlns:cc="http://creativecommons.org/ns#"
   xmlns:dc="http://purl.org/dc/elements/1.1/"><title
     id="title1">Space Wolves of Gunnar Redmoon Company Badge</title><sodipodi:namedview
     id="namedview1"
     pagecolor="#ffffff"
     bordercolor="#000000"
     borderopacity="0.25"
     inkscape:showpageshadow="2"
     inkscape:pageopacity="0.0"
     inkscape:pagecheckerboard="0"
     inkscape:deskcolor="#d1d1d1"
     inkscape:document-units="px"
     inkscape:zoom="0.35355338"
     inkscape:cx="502.04583"
     inkscape:cy="312.54121"
     inkscape:window-width="1920"
     inkscape:window-height="1017"
     inkscape:window-x="-8"
     inkscape:window-y="-8"
     inkscape:window-maximized="1"
     inkscape:current-layer="svg1"
     showguides="false" /><defs
     id="defs1" /><metadata
     id="metadata1"><rdf:RDF><cc:Work
         rdf:about=""><dc:date>2024-11-18</dc:date><dc:creator><cc:Agent><dc:title>Jessie Kirk</dc:title></cc:Agent></dc:creator><dc:source>Adrian Wood, How to Paint Space Marines</dc:source><cc:license
           rdf:resource="http://creativecommons.org/licenses/by-nc-sa/4.0/" /><dc:title>Space Wolves of Gunnar Redmoon Company Badge</dc:title></cc:Work><cc:License
         rdf:about="http://creativecommons.org/licenses/by-nc-sa/4.0/"><cc:permits
           rdf:resource="http://creativecommons.org/ns#Reproduction" /><cc:permits
           rdf:resource="http://creativecommons.org/ns#Distribution" /><cc:requires
           rdf:resource="http://creativecommons.org/ns#Notice" /><cc:requires
           rdf:resource="http://creativecommons.org/ns#Attribution" /><cc:prohibits
           rdf:resource="http://creativecommons.org/ns#CommercialUse" /><cc:permits
           rdf:resource="http://creativecommons.org/ns#DerivativeWorks" /><cc:requires
           rdf:resource="http://creativecommons.org/ns#ShareAlike" /></cc:License></rdf:RDF></metadata><path
     style="display:inline;fill:#ffffff;stroke:none;stroke-width:5.81514;stroke-linecap:square;paint-order:markers stroke fill"
     d="M 404.27716,-3.8381506 C 181.18664,-3.8381506 1.8306277e-5,177.34847 1.8306277e-5,400.439 1.8306277e-5,623.52952 181.18664,804.71614 404.27716,804.71614 c 223.09053,0 404.27715,-181.18662 404.27715,-404.27714 0,-223.09053 -181.18662,-404.2771506 -404.27715,-404.2771506 z"
     id="space_wolves_of_gunnar_redmoon_company_badge_white_parts"
     sodipodi:nodetypes="sssss"
     inkscape:label="space_wolves_of_gunnar_redmoon_company_badge_white_parts" /><path
     id="space_wolves_of_gunnar_redmoon_company_badge_black_parts"
     style="display:inline;stroke:none;stroke-width:5.81514;stroke-linecap:square;paint-order:markers stroke fill"
     inkscape:label="space_wolves_of_gunnar_redmoon_company_badge_black_parts"
     d="M 404.27734 -3.8378906 C 181.18682 -3.8378906 -7.5791225e-14 177.34892 0 400.43945 C 0 543.97358 75.067371 670.06786 187.97656 741.81445 C 166.87106 772.01377 151.37474 798.34924 140.85547 815.83398 C 180.02835 801.21594 195.45675 789.89352 229.28906 784.53516 C 229.52574 784.52356 229.224 784.5058 229.42578 784.5 C 229.13967 788.04973 227.1923 796.56106 222.03125 806.69336 C 216.23332 818.07597 207.56646 830.95459 198.11133 842.21875 L 198.75977 841.49219 C 180.30636 861.02734 170.38194 878.34676 167.67383 895.6582 C 164.96572 912.96958 169.97718 928.09653 175.55664 941.30469 L 177.04297 944.83594 L 179.93945 947.35742 C 204.25028 968.50976 230.20414 993.47583 261.72656 1015.5723 L 279.22852 1027.8379 L 286.75977 1007.8379 C 257.90307 871.61321 423.51953 983.93164 423.51953 983.93164 L 424.64258 984.85156 C 465.59391 1018.2372 504.99312 1020.6185 534.1875 1005.3848 C 563.38195 990.15106 582.67057 962.22129 598.54102 940.72656 L 600.22266 938.44336 L 601.05078 935.72852 C 613.96132 893.56288 626.21855 873.46037 650.84375 852.11328 C 675.46895 830.76625 714.00134 808.70888 775.8125 769.67969 L 782.87695 765.21484 L 783.49023 756.87891 C 785.99521 722.73386 770.31402 696.35951 766.94141 686.74609 C 772.2375 685.74816 784.27593 684.69374 806.02344 686.30273 L 809.67969 686.57422 L 813.11133 685.2793 C 842.39038 674.21466 875.6972 646.74543 905.91406 619.57617 C 936.13092 592.40696 960.84105 566.82728 969.6543 555.98438 L 971.70898 553.46289 L 972.65234 550.35156 C 979.09377 529.16153 974.05823 515.10817 976.59375 485.74805 C 979.12927 456.38799 988.31477 409.35573 1020.8203 324.63867 L 1024 316.34766 L 1018.8672 309.10156 C 982.50868 257.90461 887.93009 201.0407 763.81836 202.95312 L 763.81641 202.95117 L 761.51172 202.98633 L 759.29688 203.64453 C 758.77942 203.79994 758.1343 203.99201 757.61133 204.14844 C 688.51863 80.164409 556.14084 -3.8378906 404.27734 -3.8378906 z M 404.27734 11.865234 A 388.57693 388.57693 0 0 1 741.34766 209.00391 C 669.76038 230.30562 559.82513 266.14001 461.30469 400.17773 L 459.73633 402.31445 L 458.9082 404.82422 C 446.08838 443.90731 439.39251 456.0646 425.20898 468.5625 C 411.02545 481.06045 385.90756 494.64614 340.71875 527.79297 L 326.95312 537.89062 L 337.44922 551.34961 C 344.4849 560.37476 349.46592 566.67825 354.64453 573.51953 C 284.52232 620.94533 233.6265 679.12145 197.31055 729.03516 A 388.57693 388.57693 0 0 1 15.699219 400.44141 A 388.57693 388.57693 0 0 1 404.27734 11.865234 z " /><path
     id="space_wolves_of_gunnar_redmoon_company_badge_brown_parts"
     style="display:inline;fill:#aba173;stroke-width:0;stroke-linecap:square;stroke:none;fill-opacity:1"
     d="m 764.06622,219.52225 c -71.02984,21.33279 -185.30194,48.83508 -289.40539,190.46858 -26.16557,79.76947 -35.09332,65.85291 -124.13963,131.17002 12.11782,15.54439 17.21932,24.29816 27.64465,35.71996 -82.23847,51.74172 -141.99851,119.90273 -205.73332,212.76371 104.86611,-58.51967 79.2535,14.53128 38.37766,63.22825 -34.28508,36.29473 -30.40836,57.31542 -19.98955,81.97987 24.74755,21.53236 50.22461,45.97781 80.42386,67.14676 12.33577,-32.78853 -44.75065,-108.46723 43.18195,-76.92573 -15.26242,-81.25158 43.62256,-56.0062 67.24889,-65.29542 -13.33469,-93.9829 44.20495,-53.49673 82.84301,-50.07603 16.19825,-23.42205 -8.67944,-133.34826 63.48953,-59.73016 23.50875,-39.07878 34.30194,-22.18458 47.63419,-25.64564 9.73507,-33.27434 24.69743,-44.64911 40.60375,-57.20876 -0.58488,-0.94572 -1.16616,-1.89737 -1.74907,-2.99841 -63.47784,-104.12589 12.83919,-143.44799 51.96147,-143.59534 9.02818,-0.0349 16.07613,2.0264 18.96736,5.84921 12.33577,2.56995 11.31045,11.30318 1.54462,16.95707 5.13988,-8.39515 -120.27059,-13.19607 -57.04972,113.58829 2.91611,5.20037 3.88137,9.86254 3.55497,13.4021 46.32363,28.40678 14.8407,71.1562 -0.98811,87.8631 -23.75822,11.14803 4.09804,57.17987 -52.73379,61.78586 -5.6583,12.93794 -8.41387,37.51295 -57.32228,45.36263 -13.46769,29.94925 27.94873,74.79143 -74.19985,64.76159 12.21587,32.97801 -8.64949,25.25289 -22.23837,31.33587 l 9.12023,10.57402 c 75.46965,61.52695 118.23587,2.01937 150.09197,-41.12618 26.79535,-87.51344 58.68546,-97.50449 181.7572,-175.21518 2.37136,-32.32363 -16.82169,-57.19545 -17.8316,-71.91694 -0.53965,-0.23551 -0.93868,-0.34949 -1.51054,-0.61332 -13.87778,-22.78692 -22.09835,-48.14104 -30.83618,-79.15179 1.63836,-6.64973 3.59632,-8.91118 5.61074,-8.69997 1.56677,0.16456 3.16884,1.82868 4.66799,4.0774 8.11351,30.18232 20.41271,53.38176 35.5155,71.0424 8.95543,-1.908 22.88746,-2.23644 44.66981,-0.62466 48.03137,-18.15115 135.67955,-107.18106 149.5468,-124.24187 9.76379,-32.11946 -17.18031,-55.5165 48.55413,-226.83588 C 973.86839,274.36914 882.77405,217.6931 764.06622,219.52225 Z m -101.50368,94.31431 c 7.28155,3.59788 9.41739,7.9622 1.02219,16.95706 -43.87,19.78892 -144.455,145.97578 -4.37275,146.7414 -13.62075,7.28154 -28.51984,10.20307 -48.5655,9.51775 -70.87126,-24.52901 -39.34215,-130.94811 51.91606,-173.21621 z M 491.15216,493.34493 c 16.74086,-0.23842 34.56827,3.83288 51.90466,9.38145 -15.06371,76.51689 -15.15693,105.72401 -100.23162,142.3801 -26.21354,3.94057 -44.71796,6.33408 -72.47345,-5.14506 18.84635,-11.82177 39.74683,-23.64361 42.65946,-52.4271 9.70983,-72.29702 41.31105,-93.66545 78.14095,-94.18939 z"
     inkscape:label="space_wolves_of_gunnar_redmoon_company_badge_brown_parts" /></svg>
