<?xml version="1.0" encoding="UTF-8" standalone="no"?>
<!-- Created with Inkscape (http://www.inkscape.org/) -->

<svg
   width="1024"
   height="1024"
   viewBox="0 0 1024 1024"
   version="1.1"
   id="svg1"
   inkscape:version="1.4 (86a8ad7, 2024-10-11)"
   sodipodi:docname="space_wolves_of_bran_redmaw.svg"
   xml:space="preserve"
   xmlns:inkscape="http://www.inkscape.org/namespaces/inkscape"
   xmlns:sodipodi="http://sodipodi.sourceforge.net/DTD/sodipodi-0.dtd"
   xmlns="http://www.w3.org/2000/svg"
   xmlns:svg="http://www.w3.org/2000/svg"
   xmlns:rdf="http://www.w3.org/1999/02/22-rdf-syntax-ns#"
   xmlns:cc="http://creativecommons.org/ns#"
   xmlns:dc="http://purl.org/dc/elements/1.1/"><title
     id="title1">Space Wolves of Bran Redmaw Company Badge</title><sodipodi:namedview
     id="namedview1"
     pagecolor="#ffffff"
     bordercolor="#000000"
     borderopacity="0.25"
     inkscape:showpageshadow="2"
     inkscape:pageopacity="0.0"
     inkscape:pagecheckerboard="0"
     inkscape:deskcolor="#d1d1d1"
     inkscape:document-units="px"
     inkscape:zoom="0.5"
     inkscape:cx="591"
     inkscape:cy="537"
     inkscape:window-width="1920"
     inkscape:window-height="1017"
     inkscape:window-x="-8"
     inkscape:window-y="-8"
     inkscape:window-maximized="1"
     inkscape:current-layer="svg1"
     showguides="false" /><defs
     id="defs1" /><metadata
     id="metadata1"><rdf:RDF><cc:Work
         rdf:about=""><dc:date>2024-11-18</dc:date><dc:creator><cc:Agent><dc:title>Jessie Kirk</dc:title></cc:Agent></dc:creator><dc:source>Adrian Wood, How to Paint Space Marines</dc:source><cc:license
           rdf:resource="http://creativecommons.org/licenses/by-nc-sa/4.0/" /><dc:title>Space Wolves of Bran Redmaw Company Badge</dc:title></cc:Work><cc:License
         rdf:about="http://creativecommons.org/licenses/by-nc-sa/4.0/"><cc:permits
           rdf:resource="http://creativecommons.org/ns#Reproduction" /><cc:permits
           rdf:resource="http://creativecommons.org/ns#Distribution" /><cc:requires
           rdf:resource="http://creativecommons.org/ns#Notice" /><cc:requires
           rdf:resource="http://creativecommons.org/ns#Attribution" /><cc:prohibits
           rdf:resource="http://creativecommons.org/ns#CommercialUse" /><cc:permits
           rdf:resource="http://creativecommons.org/ns#DerivativeWorks" /><cc:requires
           rdf:resource="http://creativecommons.org/ns#ShareAlike" /></cc:License></rdf:RDF></metadata><path
     id="space_wolves_of_bran_redmaw_company_badge_red_parts"
     style="display:inline;fill:#c81925;stroke:none;stroke-width:0;stroke-linecap:square;fill-opacity:1"
     d="m 512.00175,457.02516 c 0,21.73279 -40.05262,79.24249 -124.39429,185.44616 -1.09337,0.27779 -2.06172,0.41079 -2.95597,0.44814 -0.80358,0.0524 -1.52244,-0.0131 -2.21378,-0.10221 75.41114,67.67853 34.52887,128.83332 37.58318,169.0667 47.48181,141.48494 34.46473,-11.25026 85.92812,-3.18633 75.20647,-12.40717 20.50577,150.17274 97.52177,3.18633 7.39893,-78.43354 -23.6176,-101.33883 37.53201,-169.00269 -0.55886,0.0393 -1.13673,0.059 -1.76596,0.0131 -1.0076,-0.007 -2.08616,-0.1009 -3.35262,-0.42194 -0.55493,-0.92911 -0.97346,-1.66343 -1.52283,-2.58487 C 551.50028,535.42693 512.00175,478.57214 512.00175,457.02628 Z M 373.88966,750.95959 c -27.66182,31.32891 -171.86758,149.23897 -66.65665,152.76403 57.76307,-6.73602 68.30927,-98.30733 66.65665,-152.76403 z m 271.64303,88.62824 c -21.09811,177.83817 66.65528,121.77889 60.30968,89.40876 -6.20355,-26.32827 -32.10032,-56.71039 -60.30968,-89.40876 z m -99.58197,83.29208 c -2.84229,21.79857 -2.54582,39.92328 0.19197,60.16888 5.48443,30.93171 14.44019,31.45541 30.05885,35.45901 84.09802,-28.9888 2.60303,-51.87561 -30.25082,-95.62789 z m -107.09346,4.88822 c -134.63597,65.18656 -67.73717,96.55867 -61.42295,96.22927 30.30199,-5.7328 40.53915,-18.0174 46.68144,-31.93991 7.51981,-20.27161 15.32914,-39.0954 14.74151,-64.28936 z"
     inkscape:label="space_wolves_of_bran_redmaw_company_badge_red_parts" /><path
     id="space_wolves_of_bran_redmaw_company_badge_black_parts"
     style="display:inline;fill:#000000;stroke:none;stroke-width:0;stroke-linecap:square"
     d="M 86.46863,-1.0163946e-5 C 106.20109,221.76228 203.73498,229.77321 216.91565,247.61128 293.4896,279.27821 200.5362,277.7768 198.48877,301.254 c 37.94576,14.05901 81.62426,5.59633 51.18579,38.08223 -38.06755,38.79212 -55.75566,59.58243 -153.019941,105.62186 9.188681,41.34771 157.989531,-33.38722 56.381161,79.46597 59.83113,-1.94004 138.8584,-47.0828 39.59222,50.77631 65.61983,15.05665 87.80023,-38.81701 79.58109,17.0577 133.05483,-53.26356 8.2713,26.23477 26.60384,43.54628 83.593,-24.42392 68.02544,11.93938 88.79453,6.66697 84.34167,-106.20367 124.39429,-163.71337 124.39429,-185.44616 0,21.73279 40.05261,79.24249 124.39429,185.44616 20.76908,5.27241 5.20159,-31.09089 88.79453,-6.66697 18.33254,-17.31151 -106.45099,-96.80984 26.60384,-43.54628 -8.21915,-55.87471 13.96132,-2.00105 79.58115,-17.0577 -99.26618,-97.85911 -20.23891,-52.71635 39.59215,-50.77631 C 769.35934,411.57087 918.1602,486.3058 927.34888,444.95809 830.0846,398.91866 812.39649,378.12835 774.32893,339.33623 743.89047,306.85033 787.56897,315.31301 825.51473,301.254 823.4673,277.7768 730.51389,279.27821 807.08784,247.61128 820.26852,229.77321 917.8024,221.76228 937.53486,-1.0163946e-5 803.69428,92.107035 750.75425,97.531124 676.87118,114.52822 631.00556,145.58038 640.50368,117.73787 613.69516,73.016519 585.80318,135.66852 585.14702,84.709287 568.52371,34.396844 531.58103,134.76195 535.96004,41.201983 512.56481,5.7327989 l -0.25618,-0.5372461 -0.0262,0.039311 -0.0262,-0.039311 -0.25618,0.5372461 -0.25617,-0.5372461 -0.0262,0.039311 -0.0262,-0.039311 -0.25617,0.5372461 C 488.04005,41.201983 492.41913,134.76195 455.47645,34.396844 438.85313,84.709287 438.19697,135.66852 410.30499,73.016519 383.49647,117.73787 392.99453,145.58038 347.12891,114.52822 273.24584,97.531124 220.30581,92.107035 86.465223,-1.0163946e-5 Z M 360.23588,347.52596 c 33.8509,29.21 51.32227,44.49754 96.63878,67.97473 -38.49172,24.02322 -87.30826,62.52411 -96.63878,-67.97473 z m 303.53173,0 c -9.33052,130.49884 -58.14706,91.99795 -96.63878,67.97473 45.31652,-23.47719 62.78796,-38.76473 96.63878,-67.97473 z"
     inkscape:label="space_wolves_of_bran_redmaw_company_badge_black_parts" /></svg>
