<?xml version="1.0" encoding="UTF-8" standalone="no"?>
<!-- Created with Inkscape (http://www.inkscape.org/) -->

<svg
   width="1024"
   height="1024"
   viewBox="0 0 1024 1024"
   version="1.1"
   id="svg1"
   inkscape:version="1.4 (86a8ad7, 2024-10-11)"
   sodipodi:docname="white_scars.svg"
   xml:space="preserve"
   xmlns:inkscape="http://www.inkscape.org/namespaces/inkscape"
   xmlns:sodipodi="http://sodipodi.sourceforge.net/DTD/sodipodi-0.dtd"
   xmlns="http://www.w3.org/2000/svg"
   xmlns:svg="http://www.w3.org/2000/svg"
   xmlns:rdf="http://www.w3.org/1999/02/22-rdf-syntax-ns#"
   xmlns:cc="http://creativecommons.org/ns#"
   xmlns:dc="http://purl.org/dc/elements/1.1/"><title
     id="title1">White Scars Chapter Badge</title><sodipodi:namedview
     id="namedview1"
     pagecolor="#ffffff"
     bordercolor="#000000"
     borderopacity="0.25"
     inkscape:showpageshadow="2"
     inkscape:pageopacity="0.0"
     inkscape:pagecheckerboard="0"
     inkscape:deskcolor="#d1d1d1"
     inkscape:document-units="px"
     inkscape:zoom="0.35355339"
     inkscape:cx="821.65808"
     inkscape:cy="470.93312"
     inkscape:window-width="1920"
     inkscape:window-height="1017"
     inkscape:window-x="-8"
     inkscape:window-y="-8"
     inkscape:window-maximized="1"
     inkscape:current-layer="svg1"
     showguides="false" /><defs
     id="defs1" /><metadata
     id="metadata1"><rdf:RDF><cc:Work
         rdf:about=""><dc:date>2024-11-18</dc:date><dc:creator><cc:Agent><dc:title>Jessie Kirk</dc:title></cc:Agent></dc:creator><dc:source>Adrian Wood, How to Paint Space Marines</dc:source><cc:license
           rdf:resource="http://creativecommons.org/licenses/by-nc-sa/4.0/" /><dc:title>White Scars Chapter Badge</dc:title></cc:Work><cc:License
         rdf:about="http://creativecommons.org/licenses/by-nc-sa/4.0/"><cc:permits
           rdf:resource="http://creativecommons.org/ns#Reproduction" /><cc:permits
           rdf:resource="http://creativecommons.org/ns#Distribution" /><cc:requires
           rdf:resource="http://creativecommons.org/ns#Notice" /><cc:requires
           rdf:resource="http://creativecommons.org/ns#Attribution" /><cc:prohibits
           rdf:resource="http://creativecommons.org/ns#CommercialUse" /><cc:permits
           rdf:resource="http://creativecommons.org/ns#DerivativeWorks" /><cc:requires
           rdf:resource="http://creativecommons.org/ns#ShareAlike" /></cc:License></rdf:RDF></metadata><path
     id="white_scars_badge_yellow_parts"
     style="fill:#fbae16;fill-opacity:1;stroke-width:0;stroke-linecap:square"
     d="m 884.53906,387.97461 c -129.10843,57.69561 -630.57758,34.42562 -728.18945,17.96289 40.53805,88.81031 12.21082,243.38848 4.34375,263.47852 154.08804,-64.24332 548.00259,-52.94082 728.24219,7.02539 -35.76489,-83.07411 -43.86993,-202.95519 -4.39649,-288.4668 z"
     inkscape:label="white_scars_badge_yellow_parts" /><path
     id="white_scars_badge_red_parts"
     style="display:inline;fill:#cd1a27;stroke-width:0;stroke-linecap:square;stroke:none;fill-opacity:1"
     inkscape:label="white_scars_badge_red_parts"
     d="M 279.40534 808.06079 L 267.26514 808.56906 L 261.47923 819.24871 L 266.21965 818.54551 L 265.19893 820.65327 C 259.04384 820.62606 253.04405 819.94799 249.60938 818.49607 L 249.60938 818.61716 C 251.51409 824.23548 251.68538 830.04411 250.37498 835.98243 C 253.81835 834.72506 258.74227 834.12652 263.89135 834.04364 L 260.37825 845.36154 L 269.22804 834.13506 C 274.86594 834.4226 280.26706 835.28038 283.80078 836.55472 C 282.27459 831.06037 282.343 823.99317 283.64846 818.38671 L 283.17776 818.38671 C 281.28713 819.1142 278.62468 819.67779 275.59308 820.0629 L 279.01127 814.44518 L 275.62566 814.96341 L 279.40534 808.06079 z M 280.27538 822.19336 C 278.8375 825.30825 279.13274 829.6751 280.43553 832.7012 C 278.18523 831.95252 275.01441 831.41823 271.60053 831.12547 L 276.58449 824.80305 L 272.45449 825.22095 L 273.59972 823.33887 C 276.48366 823.14481 278.93691 822.79149 280.27538 822.19336 z M 253.74998 822.84768 C 255.232 823.09763 259.27789 823.38788 263.82397 823.49247 L 260.62762 830.09272 L 265.48415 828.91227 L 264.87557 830.87283 C 260.47144 830.92729 256.35773 831.42401 253.9082 832.44529 C 254.19477 831.71348 255.22664 826.08273 253.74998 822.84768 z "
     transform="matrix(27.452531,0,0,27.452531,-6809.7295,-22183.314)" /></svg>
