<?xml version="1.0" encoding="UTF-8" standalone="no"?>
<!-- Created with Inkscape (http://www.inkscape.org/) -->

<svg
   width="1024"
   height="1024"
   viewBox="0 0 1024 1024"
   version="1.1"
   id="svg1"
   inkscape:version="1.4 (86a8ad7, 2024-10-11)"
   sodipodi:docname="drakes_head_erased.svg"
   xml:space="preserve"
   xmlns:inkscape="http://www.inkscape.org/namespaces/inkscape"
   xmlns:sodipodi="http://sodipodi.sourceforge.net/DTD/sodipodi-0.dtd"
   xmlns="http://www.w3.org/2000/svg"
   xmlns:svg="http://www.w3.org/2000/svg"
   xmlns:rdf="http://www.w3.org/1999/02/22-rdf-syntax-ns#"
   xmlns:cc="http://creativecommons.org/ns#"
   xmlns:dc="http://purl.org/dc/elements/1.1/"><title
     id="title2">Drake's Head Erased</title><sodipodi:namedview
     id="namedview1"
     pagecolor="#ffffff"
     bordercolor="#000000"
     borderopacity="0.25"
     inkscape:showpageshadow="2"
     inkscape:pageopacity="0.0"
     inkscape:pagecheckerboard="0"
     inkscape:deskcolor="#d1d1d1"
     inkscape:document-units="px"
     inkscape:zoom="0.5"
     inkscape:cx="817"
     inkscape:cy="445"
     inkscape:window-width="1920"
     inkscape:window-height="1017"
     inkscape:window-x="-8"
     inkscape:window-y="-8"
     inkscape:window-maximized="1"
     inkscape:current-layer="svg1"
     showguides="false" /><defs
     id="defs1" /><metadata
     id="metadata1"><rdf:RDF><cc:Work
         rdf:about=""><dc:date>2024-11-18</dc:date><dc:creator><cc:Agent><dc:title>Jessie Kirk</dc:title></cc:Agent></dc:creator><dc:source>Adrian Wood, How to Paint Space Marines</dc:source><cc:license
           rdf:resource="http://creativecommons.org/licenses/by-nc-sa/4.0/" /><dc:title>Drake's Head Erased</dc:title></cc:Work><cc:License
         rdf:about="http://creativecommons.org/licenses/by-nc-sa/4.0/"><cc:permits
           rdf:resource="http://creativecommons.org/ns#Reproduction" /><cc:permits
           rdf:resource="http://creativecommons.org/ns#Distribution" /><cc:requires
           rdf:resource="http://creativecommons.org/ns#Notice" /><cc:requires
           rdf:resource="http://creativecommons.org/ns#Attribution" /><cc:prohibits
           rdf:resource="http://creativecommons.org/ns#CommercialUse" /><cc:permits
           rdf:resource="http://creativecommons.org/ns#DerivativeWorks" /><cc:requires
           rdf:resource="http://creativecommons.org/ns#ShareAlike" /></cc:License></rdf:RDF></metadata><path
     id="drakes_head_erased"
     style="display:inline;fill:#000000;stroke:none;stroke-width:0;stroke-linecap:square"
     d="M 907.2023,76.553456 C 806.1588,99.420236 658.0522,276.23919 702.1863,130.79565 623.4404,200.26024 467.3196,382.99523 460.36486,251.44464 313.22852,372.14934 203.18215,587.97487 129.87364,562.4171 L 103.80172,539.35096 C 19.376494,649.58441 -28.629186,741.14081 18.562674,809.89491 c 51.36308,28.8188 72.1268,-5.1056 89.913446,-22.0358 34.3376,20.6939 59.10306,13.4691 86.26155,7.0419 -13.6266,-14.4748 -20.53865,-26.916 -21.23825,-46.1158 32.7755,5.5588 63.15789,3.1409 83.17051,-1.6701 -14.70723,-16.2527 -23.03296,-30.9101 -24.17964,-51.9489 36.0784,4.7861 60.19154,5.5838 84.30475,-2.393 -76.11188,-75.1023 32.04009,-88.78337 72.38939,-89.70153 89.46886,22.57603 107.14657,76.26143 81.74962,113.19563 -45.5889,25.5195 -67.65571,41.1291 -138.95822,27.5698 9.59296,18.6 8.81602,30.8187 4.84842,46.228 -27.73594,7.1957 -48.29284,11.2008 -80.81486,12.015 14.26684,16.8137 9.38932,31.2342 2.11883,45.6547 -26.17799,10.2494 -53.95139,10.9266 -92.89224,11.6038 18.21369,13.6769 28.45054,27.3537 28.31761,41.0306 -20.54439,4.005 -41.08884,6.4147 -71.20538,-4.7362 47.22095,37.333 60.93938,57.1171 114.54176,50.5778 214.62486,-163.5602 378.55873,-194.1658 484.88933,-219.1997 36.7472,-29.8216 -40.5736,-64.4292 13.7226,-105.4183 72.784,-11.37941 117.6494,-14.78206 182.4567,-31.74518 -35.933,-27.61547 -159.6107,-36.88437 -93.4407,-128.31418 51.9987,-13.34039 82.4601,-13.91784 126.482,-12.90001 C 707.8448,388.77425 895.4366,326.52209 1024,216.4091 889.983,228.65316 514.7365,467.86402 907.2023,76.553456 Z M 411.24524,386.23999 c -13.38033,48.34466 -30.14819,82.58227 -53.68133,116.26176 -21.70644,14.77761 -47.34462,23.15714 -79.76792,25.52573 -14.5491,-24.76717 82.56918,-99.53493 133.44925,-141.78749 z"
     sodipodi:nodetypes="ccccccccccccccccccccccccccccccccc"
     inkscape:label="drakes_head_erased" /></svg>
