<?xml version="1.0" encoding="UTF-8" standalone="no"?>
<!-- Created with Inkscape (http://www.inkscape.org/) -->

<svg
   width="1024"
   height="1024"
   viewBox="0 0 1024 1024"
   version="1.1"
   id="svg1"
   inkscape:version="1.4 (86a8ad7, 2024-10-11)"
   sodipodi:docname="full_moon_with_wolfs_skull.svg"
   xml:space="preserve"
   xmlns:inkscape="http://www.inkscape.org/namespaces/inkscape"
   xmlns:sodipodi="http://sodipodi.sourceforge.net/DTD/sodipodi-0.dtd"
   xmlns="http://www.w3.org/2000/svg"
   xmlns:svg="http://www.w3.org/2000/svg"
   xmlns:rdf="http://www.w3.org/1999/02/22-rdf-syntax-ns#"
   xmlns:cc="http://creativecommons.org/ns#"
   xmlns:dc="http://purl.org/dc/elements/1.1/"><title
     id="title1">Full Moon with Wolf's Skull</title><sodipodi:namedview
     id="namedview1"
     pagecolor="#ffffff"
     bordercolor="#000000"
     borderopacity="0.25"
     inkscape:showpageshadow="2"
     inkscape:pageopacity="0.0"
     inkscape:pagecheckerboard="0"
     inkscape:deskcolor="#d1d1d1"
     inkscape:document-units="px"
     inkscape:zoom="0.35355338"
     inkscape:cx="502.04584"
     inkscape:cy="312.54121"
     inkscape:window-width="1920"
     inkscape:window-height="1017"
     inkscape:window-x="-8"
     inkscape:window-y="-8"
     inkscape:window-maximized="1"
     inkscape:current-layer="svg1"
     showguides="false" /><defs
     id="defs1" /><metadata
     id="metadata1"><rdf:RDF><cc:Work
         rdf:about=""><dc:date>2024-11-18</dc:date><dc:creator><cc:Agent><dc:title>Jessie Kirk</dc:title></cc:Agent></dc:creator><dc:source>Adrian Wood, How to Paint Space Marines</dc:source><cc:license
           rdf:resource="http://creativecommons.org/licenses/by-nc-sa/4.0/" /><dc:title>Full Moon with Wolf's Skull</dc:title></cc:Work><cc:License
         rdf:about="http://creativecommons.org/licenses/by-nc-sa/4.0/"><cc:permits
           rdf:resource="http://creativecommons.org/ns#Reproduction" /><cc:permits
           rdf:resource="http://creativecommons.org/ns#Distribution" /><cc:requires
           rdf:resource="http://creativecommons.org/ns#Notice" /><cc:requires
           rdf:resource="http://creativecommons.org/ns#Attribution" /><cc:prohibits
           rdf:resource="http://creativecommons.org/ns#CommercialUse" /><cc:permits
           rdf:resource="http://creativecommons.org/ns#DerivativeWorks" /><cc:requires
           rdf:resource="http://creativecommons.org/ns#ShareAlike" /></cc:License></rdf:RDF></metadata><path
     style="display:inline;stroke-width:5.81514;stroke-linecap:square;paint-order:markers stroke fill;stroke:none"
     d="M 404.27716,-3.8381506 C 181.18664,-3.8381506 1.8306277e-5,177.34847 1.8306277e-5,400.439 1.8306277e-5,623.52952 181.18664,804.71614 404.27716,804.71614 c 223.09053,0 404.27715,-181.18662 404.27715,-404.27714 0,-223.09053 -181.18662,-404.2771506 -404.27715,-404.2771506 z"
     id="full_moon_black_parts"
     sodipodi:nodetypes="sssss"
     inkscape:label="full_moon_black_parts" /><path
     style="display:inline;fill:#ffffff;stroke-width:5.81514;stroke-linecap:square;paint-order:markers stroke fill;stroke:none"
     d="M 792.8539,400.44202 A 388.57693,388.57693 0 0 1 404.27699,789.01893 388.57693,388.57693 0 0 1 15.700082,400.44202 388.57693,388.57693 0 0 1 404.27699,11.865054 388.57693,388.57693 0 0 1 792.8539,400.44202 Z"
     id="full_moon_white_parts"
     inkscape:label="full_moon_white_parts" /><path
     style="display:inline;fill:#000000;stroke-width:5.81514;stroke-linecap:square;stroke:none"
     d="m 763.81634,202.95137 -2.30558,0.0349 -2.21476,0.65874 c -70.0982,21.05302 -191.06707,51.0617 -297.99185,196.53359 l -1.56735,2.13526 -0.82913,2.51005 c -12.81982,39.08309 -19.51474,51.24145 -33.69827,63.73935 -14.18353,12.49795 -39.3011,26.08357 -84.48991,59.2304 l -13.76555,10.097 10.49453,13.45885 c 7.03568,9.02515 12.01693,15.32894 17.19554,22.17022 -119.97355,81.14179 -184.99763,194.45736 -213.78897,242.31328 39.17288,-14.61804 54.60178,-25.94029 88.43409,-31.29865 0.23668,-0.0116 -0.0657,-0.0291 0.13608,-0.0349 -0.28611,3.54973 -2.23279,12.06066 -7.39384,22.19296 -5.79793,11.38261 -14.46423,24.26268 -23.91936,35.52684 l 0.6474,-0.72689 c -18.45341,19.53515 -28.37788,36.85345 -31.08599,54.16489 -2.70811,17.31138 2.30279,32.43842 7.88225,45.64658 l 1.48786,3.53223 2.89617,2.52139 c 24.31083,21.15234 50.26439,46.1179 81.78681,68.21434 l 17.50217,12.2663 7.5302,-20.0009 c -28.8567,-136.22468 136.75977,-23.90629 136.75977,-23.90629 l 1.12441,0.92001 c 40.95133,33.38568 80.35059,35.76838 109.54497,20.53468 29.19445,-15.23371 48.48228,-43.16459 64.35273,-64.65932 l 1.68092,-2.28291 0.82913,-2.71451 c 12.91054,-42.16564 25.16693,-62.26828 49.79213,-83.61537 24.6252,-21.34703 63.15754,-43.40496 124.9687,-82.43415 l 7.06452,-4.46353 0.61333,-8.33658 c 2.50498,-34.14505 -13.1756,-60.52037 -16.54821,-70.13379 5.29609,-0.99793 17.33436,-2.0521 39.08187,-0.44311 l 3.65715,0.27273 3.43006,-1.2948 c 29.27905,-11.06464 62.58684,-38.53502 92.8037,-65.70428 30.21686,-27.16921 54.92615,-52.74879 63.7394,-63.5917 l 2.05571,-2.52144 0.9427,-3.11197 c 6.44143,-21.19003 1.40563,-35.24249 3.94115,-64.60261 2.53552,-29.36006 11.72134,-76.39186 44.22688,-161.10892 l 3.1801,-8.29111 -5.1336,-7.24619 C 982.50789,257.90509 887.92964,201.04057 763.81791,202.953 Z"
     id="wolfs_skull_black_parts"
     sodipodi:nodetypes="ccccccssccccccsccsccccccccscccscccccccscccsccccc"
     inkscape:label="wolfs_skull_black_parts" /><path
     id="wolfs_skull_white_parts"
     style="display:inline;fill:#ffffff;stroke-width:0;stroke-linecap:square;stroke:none"
     d="m 764.06622,219.52225 c -71.02984,21.33279 -185.30194,48.83508 -289.40539,190.46858 -26.16557,79.76947 -35.09332,65.85291 -124.13963,131.17002 12.11782,15.54439 17.21932,24.29816 27.64465,35.71996 -82.23847,51.74172 -141.99851,119.90273 -205.73332,212.76371 104.86611,-58.51967 79.2535,14.53128 38.37766,63.22825 -34.28508,36.29473 -30.40836,57.31542 -19.98955,81.97987 24.74755,21.53236 50.22461,45.97781 80.42386,67.14676 12.33577,-32.78853 -44.75065,-108.46723 43.18195,-76.92573 -15.26242,-81.25158 43.62256,-56.0062 67.24889,-65.29542 -13.33469,-93.9829 44.20495,-53.49673 82.84301,-50.07603 16.19825,-23.42205 -8.67944,-133.34826 63.48953,-59.73016 23.50875,-39.07878 34.30194,-22.18458 47.63419,-25.64564 9.73507,-33.27434 24.69743,-44.64911 40.60375,-57.20876 -0.58488,-0.94572 -1.16616,-1.89737 -1.74907,-2.99841 -63.47784,-104.12589 12.83919,-143.44799 51.96147,-143.59534 9.02818,-0.0349 16.07613,2.0264 18.96736,5.84921 12.33577,2.56995 11.31045,11.30318 1.54462,16.95707 5.13988,-8.39515 -120.27059,-13.19607 -57.04972,113.58829 2.91611,5.20037 3.88137,9.86254 3.55497,13.4021 46.32363,28.40678 14.8407,71.1562 -0.98811,87.8631 -23.75822,11.14803 4.09804,57.17987 -52.73379,61.78586 -5.6583,12.93794 -8.41387,37.51295 -57.32228,45.36263 -13.46769,29.94925 27.94873,74.79143 -74.19985,64.76159 12.21587,32.97801 -8.64949,25.25289 -22.23837,31.33587 l 9.12023,10.57402 c 75.46965,61.52695 118.23587,2.01937 150.09197,-41.12618 26.79535,-87.51344 58.68546,-97.50449 181.7572,-175.21518 2.37136,-32.32363 -16.82169,-57.19545 -17.8316,-71.91694 -0.53965,-0.23551 -0.93868,-0.34949 -1.51054,-0.61332 -13.87778,-22.78692 -22.09835,-48.14104 -30.83618,-79.15179 1.63836,-6.64973 3.59632,-8.91118 5.61074,-8.69997 1.56677,0.16456 3.16884,1.82868 4.66799,4.0774 8.11351,30.18232 20.41271,53.38176 35.5155,71.0424 8.95543,-1.908 22.88746,-2.23644 44.66981,-0.62466 48.03137,-18.15115 135.67955,-107.18106 149.5468,-124.24187 9.76379,-32.11946 -17.18031,-55.5165 48.55413,-226.83588 C 973.86839,274.36914 882.77405,217.6931 764.06622,219.52225 Z m -101.50368,94.31431 c 7.28155,3.59788 9.41739,7.9622 1.02219,16.95706 -43.87,19.78892 -144.455,145.97578 -4.37275,146.7414 -13.62075,7.28154 -28.51984,10.20307 -48.5655,9.51775 -70.87126,-24.52901 -39.34215,-130.94811 51.91606,-173.21621 z M 491.15216,493.34493 c 16.74086,-0.23842 34.56827,3.83288 51.90466,9.38145 -15.06371,76.51689 -15.15693,105.72401 -100.23162,142.3801 -26.21354,3.94057 -44.71796,6.33408 -72.47345,-5.14506 18.84635,-11.82177 39.74683,-23.64361 42.65946,-52.4271 9.70983,-72.29702 41.31105,-93.66545 78.14095,-94.18939 z"
     inkscape:label="wolfs_skull_white_parts" /></svg>
