<?xml version="1.0" encoding="UTF-8" standalone="no"?>
<!-- Created with Inkscape (http://www.inkscape.org/) -->

<svg
   width="1024"
   height="1024"
   viewBox="0 0 1024 1024"
   version="1.1"
   id="svg1"
   inkscape:version="1.4 (86a8ad7, 2024-10-11)"
   sodipodi:docname="roundel_with_clenched_gauntlet_aversed.svg"
   xml:space="preserve"
   xmlns:inkscape="http://www.inkscape.org/namespaces/inkscape"
   xmlns:sodipodi="http://sodipodi.sourceforge.net/DTD/sodipodi-0.dtd"
   xmlns="http://www.w3.org/2000/svg"
   xmlns:svg="http://www.w3.org/2000/svg"
   xmlns:rdf="http://www.w3.org/1999/02/22-rdf-syntax-ns#"
   xmlns:cc="http://creativecommons.org/ns#"
   xmlns:dc="http://purl.org/dc/elements/1.1/"><title
     id="title1">Roundel with Clenched Gauntlet Aversed</title><sodipodi:namedview
     id="namedview1"
     pagecolor="#ffffff"
     bordercolor="#000000"
     borderopacity="0.25"
     inkscape:showpageshadow="2"
     inkscape:pageopacity="0.0"
     inkscape:pagecheckerboard="0"
     inkscape:deskcolor="#d1d1d1"
     inkscape:document-units="px"
     inkscape:zoom="0.5"
     inkscape:cx="717"
     inkscape:cy="399"
     inkscape:window-width="1920"
     inkscape:window-height="1017"
     inkscape:window-x="-8"
     inkscape:window-y="-8"
     inkscape:window-maximized="1"
     inkscape:current-layer="svg1"
     showguides="false" /><defs
     id="defs1" /><metadata
     id="metadata1"><rdf:RDF><cc:Work
         rdf:about=""><dc:date>2024-11-17</dc:date><dc:creator><cc:Agent><dc:title>Jessie Kirk</dc:title></cc:Agent></dc:creator><dc:source>Adrian Wood, How to Paint Space Marines</dc:source><cc:license
           rdf:resource="http://creativecommons.org/licenses/by-nc-sa/4.0/" /><dc:title>Roundel with Clenched Gauntlet Aversed</dc:title></cc:Work><cc:License
         rdf:about="http://creativecommons.org/licenses/by-nc-sa/4.0/"><cc:permits
           rdf:resource="http://creativecommons.org/ns#Reproduction" /><cc:permits
           rdf:resource="http://creativecommons.org/ns#Distribution" /><cc:requires
           rdf:resource="http://creativecommons.org/ns#Notice" /><cc:requires
           rdf:resource="http://creativecommons.org/ns#Attribution" /><cc:prohibits
           rdf:resource="http://creativecommons.org/ns#CommercialUse" /><cc:permits
           rdf:resource="http://creativecommons.org/ns#DerivativeWorks" /><cc:requires
           rdf:resource="http://creativecommons.org/ns#ShareAlike" /></cc:License></rdf:RDF></metadata><path
     id="roundel_with_clenched_gauntlet_aversed"
     style="display:inline;fill:#000000;stroke-width:0;stroke-linecap:square;stroke:none"
     d="M 512,2e-5 A 512.00982,512.00081 0 0 0 5e-6,512.00903 512.00982,512.00081 0 0 0 512,1024 512.00982,512.00081 0 0 0 1024,512.00903 512.00982,512.00081 0 0 0 512,2e-5 Z m 0,45.50633 A 466.49785,466.48965 0 0 1 978.49289,512.00903 466.49785,466.48965 0 0 1 512,978.49368 466.49785,466.48965 0 0 1 45.507045,512.00903 466.49785,466.48965 0 0 1 512,45.50635 Z m -71.45727,81.51267 c -14.82213,-0.0368 -30.12385,4.92465 -41.78977,18.4612 l 8.1353,86.95406 c 29.79954,19.23391 57.16035,26.2829 89.398,30.88822 l -6.5011,-115.41793 c -6.91653,-10.13333 -27.57947,-20.83369 -49.24243,-20.88555 z m -111.28956,23.83069 c -21.8784,-0.32181 -46.59369,10.12551 -67.02152,46.63773 3.52179,46.5948 11.09933,85.06235 30.06271,127.59367 34.67583,-23.56827 62.03664,-44.69969 89.39791,-73.14416 L 367.88213,161.7324 c -10.01499,-5.39257 -23.65954,-10.66239 -38.62896,-10.88269 z m 239.33445,6.19563 c -11.03487,0.31813 -22.06837,7.05615 -36.52785,12.80428 l -13.82818,106.47475 c 27.36137,18.15033 51.46289,26.54891 84.51326,34.94684 l 28.44645,-99.97387 c -4.65616,-26.45511 -23.19364,-55.38874 -62.60368,-54.252 z m 131.49298,56.4429 c -12.1908,-0.13516 -26.2112,2.62535 -42.0591,9.19465 l -43.90882,115.7951 c 10.02345,69.35035 46.06232,64.35214 87.78162,62.99768 24.3815,-39.55142 46.3366,-83.16991 58.5272,-133.28644 -3.6572,-27.83496 -23.7688,-54.29458 -60.3409,-54.70099 z m -287.49947,44.9496 c -56.07731,39.55133 -92.65177,77.06844 -146.29089,129.62302 10.29432,33.59163 11.6536,67.59142 40.64042,87.36708 115.13454,33.04979 122.16757,-37.92535 138.96372,-89.39634 78.83326,32.50795 109.71863,17.8709 146.2908,-4.88466 l 4.05868,-35.75504 C 537.45758,312.34211 489.24716,289.04949 412.58113,258.43784 Z m 199.91529,133.28653 c -34.40495,17.06665 -66.35995,46.32604 -151.96583,21.94505 -53.09726,112.69439 -99.69913,85.5984 -151.98367,96.70535 l 54.03744,82.08741 h 298.83123 l 31.9484,-165.37795 c -33.0504,-2.43814 -40.5028,-2.8519 -80.86757,-35.35986 z M 362.58435,608.04998 213.02508,835.90488 c 213.4369,-11.9834 235.89017,37.8068 298.97492,115.2204 63.08475,-77.4136 85.53812,-127.2038 298.975,-115.2204 L 661.41559,608.04998 Z"
     inkscape:label="roundel_with_clenched_gauntlet_aversed" /></svg>
