<?xml version="1.0" encoding="UTF-8" standalone="no"?>
<!-- Created with Inkscape (http://www.inkscape.org/) -->

<svg
   width="1024"
   height="1024"
   viewBox="0 0 1024 1024"
   version="1.1"
   id="svg1"
   inkscape:version="1.4 (86a8ad7, 2024-10-11)"
   sodipodi:docname="vol_with_droplet.svg"
   xml:space="preserve"
   xmlns:inkscape="http://www.inkscape.org/namespaces/inkscape"
   xmlns:sodipodi="http://sodipodi.sourceforge.net/DTD/sodipodi-0.dtd"
   xmlns="http://www.w3.org/2000/svg"
   xmlns:svg="http://www.w3.org/2000/svg"
   xmlns:rdf="http://www.w3.org/1999/02/22-rdf-syntax-ns#"
   xmlns:cc="http://creativecommons.org/ns#"
   xmlns:dc="http://purl.org/dc/elements/1.1/"><title
     id="title3">Vol with Droplet</title><sodipodi:namedview
     id="namedview1"
     pagecolor="#ffffff"
     bordercolor="#000000"
     borderopacity="0.25"
     inkscape:showpageshadow="2"
     inkscape:pageopacity="0.0"
     inkscape:pagecheckerboard="0"
     inkscape:deskcolor="#d1d1d1"
     inkscape:document-units="px"
     inkscape:zoom="0.35355339"
     inkscape:cx="651.95245"
     inkscape:cy="465.27626"
     inkscape:window-width="1920"
     inkscape:window-height="1017"
     inkscape:window-x="-8"
     inkscape:window-y="-8"
     inkscape:window-maximized="1"
     inkscape:current-layer="svg1"
     showguides="false" /><defs
     id="defs1" /><metadata
     id="metadata1"><rdf:RDF><cc:Work
         rdf:about=""><dc:date>2024-11-17</dc:date><dc:creator><cc:Agent><dc:title>Jessie Kirk</dc:title></cc:Agent></dc:creator><dc:source>Adrian Wood, How to Paint Space Marines</dc:source><cc:license
           rdf:resource="http://creativecommons.org/licenses/by-nc-sa/4.0/" /><dc:title>Vol with Droplet</dc:title></cc:Work><cc:License
         rdf:about="http://creativecommons.org/licenses/by-nc-sa/4.0/"><cc:permits
           rdf:resource="http://creativecommons.org/ns#Reproduction" /><cc:permits
           rdf:resource="http://creativecommons.org/ns#Distribution" /><cc:requires
           rdf:resource="http://creativecommons.org/ns#Notice" /><cc:requires
           rdf:resource="http://creativecommons.org/ns#Attribution" /><cc:prohibits
           rdf:resource="http://creativecommons.org/ns#CommercialUse" /><cc:permits
           rdf:resource="http://creativecommons.org/ns#DerivativeWorks" /><cc:requires
           rdf:resource="http://creativecommons.org/ns#ShareAlike" /></cc:License></rdf:RDF></metadata><path
     id="vol_with_droplet"
     style="display:inline;fill:#000000;stroke-width:0;stroke-linecap:square;stroke:none"
     d="M 96.09846,83.228947 C 84.2735,279.27668 148.76187,305.50942 180.38154,367.88129 134.96566,376.28521 76.73245,311.66167 34.65846,265.48129 28.22762,368.72683 120.0864,418.19895 169.35385,462.40437 136.38275,474.05371 69.73194,455.92903 0,423.01975 c 47.80215,80.93532 130.97124,116.00698 197.71077,132.33231 -45.55874,16.97975 -105.31913,18.55513 -170.92923,11.02769 44.70412,63.50508 112.69558,85.01059 191.74151,90.23998 -32.05378,21.80604 -78.2876,47.53043 -140.41844,59.31078 166.02102,82.90312 224.05145,-57.73955 304.61542,-24.18461 20.81524,26.86837 43.352,-85.55379 -3.05234,-82.83076 -12.25359,-1.1121 -63.496,-68.95012 0,-121.30462 C 542.29187,368.80629 227.98783,380.21422 96.09846,83.228947 Z m 831.80304,0 C 796.0122,380.21422 481.70813,368.80629 644.3323,487.61052 c 63.496,52.3545 12.2536,120.19252 0,121.30462 -46.4043,-2.72303 -23.8675,109.69913 -3.0523,82.83076 80.5639,-33.55494 138.5944,107.08773 304.6154,24.18461 -62.1308,-11.78035 -108.3647,-37.50474 -140.4184,-59.31078 79.0459,-5.22939 147.0373,-26.7349 191.7415,-90.23998 -65.6101,7.52744 -125.3705,5.95206 -170.9293,-11.02769 66.7396,-16.32533 149.9087,-51.39699 197.7108,-132.33231 -69.7319,32.90928 -136.3827,51.03396 -169.3538,39.38462 49.2674,-44.20542 141.1262,-93.67754 134.6953,-196.92308 -42.0739,46.18038 -100.3072,110.80392 -145.723,102.4 31.6196,-62.37187 96.108,-88.60461 84.283,-284.652343 z M 512,360.00437 C 455.4844,520.2511 434.39756,622.97242 400.14769,821.38283 v 28.7508 c 38.14807,120.8496 185.55636,120.8502 223.70461,0 v -28.7508 C 589.60244,622.97242 568.5156,520.2511 512,360.00437 Z"
     sodipodi:nodetypes="cccccccccccccccccccccccccccccccc"
     inkscape:label="vol_with_droplet" /></svg>
