<?xml version="1.0" encoding="UTF-8" standalone="no"?>
<!-- Created with Inkscape (http://www.inkscape.org/) -->

<svg
   width="1024"
   height="1024"
   viewBox="0 0 1024 1024"
   version="1.1"
   id="svg1"
   inkscape:version="1.4 (86a8ad7, 2024-10-11)"
   sodipodi:docname="wolfs_head_erased_regardant.svg"
   xml:space="preserve"
   xmlns:inkscape="http://www.inkscape.org/namespaces/inkscape"
   xmlns:sodipodi="http://sodipodi.sourceforge.net/DTD/sodipodi-0.dtd"
   xmlns="http://www.w3.org/2000/svg"
   xmlns:svg="http://www.w3.org/2000/svg"
   xmlns:rdf="http://www.w3.org/1999/02/22-rdf-syntax-ns#"
   xmlns:cc="http://creativecommons.org/ns#"
   xmlns:dc="http://purl.org/dc/elements/1.1/"><title
     id="title2">Wolf's Head Erased Regardant</title><sodipodi:namedview
     id="namedview1"
     pagecolor="#ffffff"
     bordercolor="#000000"
     borderopacity="0.25"
     inkscape:showpageshadow="2"
     inkscape:pageopacity="0.0"
     inkscape:pagecheckerboard="0"
     inkscape:deskcolor="#d1d1d1"
     inkscape:document-units="px"
     inkscape:zoom="0.5"
     inkscape:cx="821"
     inkscape:cy="381"
     inkscape:window-width="1920"
     inkscape:window-height="1017"
     inkscape:window-x="-8"
     inkscape:window-y="-8"
     inkscape:window-maximized="1"
     inkscape:current-layer="svg1"
     showguides="false" /><defs
     id="defs1" /><metadata
     id="metadata1"><rdf:RDF><cc:Work
         rdf:about=""><dc:date>2024-11-18</dc:date><dc:creator><cc:Agent><dc:title>Jessie Kirk</dc:title></cc:Agent></dc:creator><dc:source>Adrian Wood, How to Paint Space Marines</dc:source><cc:license
           rdf:resource="http://creativecommons.org/licenses/by-nc-sa/4.0/" /><dc:title>Wolf's Head Erased Regardant</dc:title></cc:Work><cc:License
         rdf:about="http://creativecommons.org/licenses/by-nc-sa/4.0/"><cc:permits
           rdf:resource="http://creativecommons.org/ns#Reproduction" /><cc:permits
           rdf:resource="http://creativecommons.org/ns#Distribution" /><cc:requires
           rdf:resource="http://creativecommons.org/ns#Notice" /><cc:requires
           rdf:resource="http://creativecommons.org/ns#Attribution" /><cc:prohibits
           rdf:resource="http://creativecommons.org/ns#CommercialUse" /><cc:permits
           rdf:resource="http://creativecommons.org/ns#DerivativeWorks" /><cc:requires
           rdf:resource="http://creativecommons.org/ns#ShareAlike" /></cc:License></rdf:RDF></metadata><path
     id="wolfs_head_erased_regardant"
     style="display:inline;fill:#000000;stroke:none;stroke-width:0;stroke-linecap:square"
     d="m 344.50966,72.402607 c -59.67118,0.54895 20.03844,31.714313 -14.87441,104.374483 -26.81901,15.55052 -44.84864,47.32768 -79.10485,96.00759 2.27795,42.18866 2.84518,51.2475 -38.53826,141.98306 -22.98773,52.96195 -33.80549,68.0617 -44.62325,119.67144 13.70199,85.9279 -7.93812,7.09352 -43.94713,230.5534 64.04658,28.4646 93.14521,12.096 147.72999,0 1.57761,-22.537 -78.65413,-21.7481 19.94524,-51.3843 -17.69152,-11.0431 -53.97612,-25.4668 27.38245,-44.2852 -100.18574,-35.8596 187.0408,-73.7511 25.35411,1.0142 26.81901,13.6348 59.72305,15.7759 -8.78942,37.8621 61.3006,24.678 10.02898,18.593 -14.87442,58.8216 l 55.441,3.7186 c 79.64536,-0.1012 88.15109,-75.3121 149.30427,-135.13 l -61.40999,-83.59155 c 35.02763,-7.68331 70.05529,-14.69046 109.13949,-6.82325 l -65.05643,-69.50922 85.88003,-24.35986 -58.1115,-59.7918 57.5033,-38.01208 -101.58636,-14.64243 c -5.52154,-2.141 -3.62579,-6.26375 1.33237,-16.85471 l 149.07809,26.40225 -83.4557,44.08717 74.0722,62.06207 -91.463,29.55081 70.9858,76.23636 c -37.0554,-2.17167 -76.1391,-2.315 -109.13789,9.71164 106.82539,103.7829 16.59869,136.7722 -23.62988,171.9299 28.05856,12.9588 52.39847,15.7759 79.10487,17.5789 0,0 4.1353,78.6234 -102.80268,107.9215 -29.22098,11.1185 -35.76177,-65.8676 21.47147,-39.6344 -19.13921,-89.48 -92.50573,22.7426 -133.33367,25.6921 -24.61754,12.4608 -54.14347,-58.1345 3.68463,-30.1308 -77.42506,-112.8607 -114.89637,24.836 -162.52933,30.1511 -44.54482,4.9704 -44.89239,-53.2856 4.13157,-21.1736 C 113.78265,704.66188 37.51654,881.97428 2e-5,951.59888 H 1024 c -11.0431,-71.6676 -16.6773,-121.6997 -53.41262,-202.8329 20.9594,1.4649 31.43912,6.6484 48.67992,17.5789 -3.3806,-44.1726 -16.9028,-93.0778 -52.73662,-175.1125 15.6632,0.2256 24.5653,6.5357 39.89052,16.9028 -9.69092,-46.2009 -24.11462,-88.34503 -71.66772,-175.11248 15.776,2.81711 23.1004,6.98649 37.1861,17.57886 -7.8879,-36.73532 -33.3548,-70.76614 -86.5421,-134.54585 14.8744,-2.141 30.0869,0.45056 56.7933,12.84608 -20.9595,-40.56658 -58.8216,-86.54205 -210.9463,-105.47313 2.0283,-7.66259 5.0708,-12.95875 32.4533,-25.01606 -44.1726,-7.88793 -93.7539,-17.12813 -185.2541,4.73277 3.4932,-18.93107 9.0148,-27.38245 21.6355,-40.56659 -42.5949,10.81776 -63.5543,7.43721 -146.03973,48.67991 -13.52219,-45.75008 -34.4816,-85.41523 -93.30315,-135.221963 -6.08499,-2.47905 -10.8091,-3.68394 -16.22664,-3.63412 z M 260.67205,472.23707 c -0.44245,28.49982 0.30235,33.05977 2.02833,55.44101 -10.2038,5.5514 -36.50993,14.1983 -36.50993,14.1983 z"
     sodipodi:nodetypes="scccccccccccccccccccccccccccccccccscccccccccccccccccscccc"
     inkscape:label="wolfs_head_erased_regardant" /></svg>
