<?xml version="1.0" encoding="UTF-8" standalone="no"?>
<!-- Created with Inkscape (http://www.inkscape.org/) -->

<svg
   width="1024"
   height="1024"
   viewBox="0 0 1024 1024"
   version="1.1"
   id="svg1"
   inkscape:version="1.4 (86a8ad7, 2024-10-11)"
   sodipodi:docname="wolfs_head_erased_arising_vomiting_flames_of_fire.svg"
   xml:space="preserve"
   xmlns:inkscape="http://www.inkscape.org/namespaces/inkscape"
   xmlns:sodipodi="http://sodipodi.sourceforge.net/DTD/sodipodi-0.dtd"
   xmlns="http://www.w3.org/2000/svg"
   xmlns:svg="http://www.w3.org/2000/svg"
   xmlns:rdf="http://www.w3.org/1999/02/22-rdf-syntax-ns#"
   xmlns:cc="http://creativecommons.org/ns#"
   xmlns:dc="http://purl.org/dc/elements/1.1/"><title
     id="title2">Wolf's Head Erased Arising Vomiting Flames of Fire</title><sodipodi:namedview
     id="namedview1"
     pagecolor="#ffffff"
     bordercolor="#000000"
     borderopacity="0.25"
     inkscape:showpageshadow="2"
     inkscape:pageopacity="0.0"
     inkscape:pagecheckerboard="0"
     inkscape:deskcolor="#d1d1d1"
     inkscape:document-units="px"
     inkscape:zoom="0.70710678"
     inkscape:cx="461.74073"
     inkscape:cy="658.31641"
     inkscape:window-width="1920"
     inkscape:window-height="1017"
     inkscape:window-x="-8"
     inkscape:window-y="-8"
     inkscape:window-maximized="1"
     inkscape:current-layer="svg1"
     showguides="false" /><defs
     id="defs1" /><metadata
     id="metadata1"><rdf:RDF><cc:Work
         rdf:about=""><dc:date>2024-11-18</dc:date><dc:creator><cc:Agent><dc:title>Jessie Kirk</dc:title></cc:Agent></dc:creator><dc:source>Adrian Wood, How to Paint Space Marines</dc:source><cc:license
           rdf:resource="http://creativecommons.org/licenses/by-nc-sa/4.0/" /><dc:title>Wolf's Head Erased Arising Vomiting Flames of Fire</dc:title></cc:Work><cc:License
         rdf:about="http://creativecommons.org/licenses/by-nc-sa/4.0/"><cc:permits
           rdf:resource="http://creativecommons.org/ns#Reproduction" /><cc:permits
           rdf:resource="http://creativecommons.org/ns#Distribution" /><cc:requires
           rdf:resource="http://creativecommons.org/ns#Notice" /><cc:requires
           rdf:resource="http://creativecommons.org/ns#Attribution" /><cc:prohibits
           rdf:resource="http://creativecommons.org/ns#CommercialUse" /><cc:permits
           rdf:resource="http://creativecommons.org/ns#DerivativeWorks" /><cc:requires
           rdf:resource="http://creativecommons.org/ns#ShareAlike" /></cc:License></rdf:RDF></metadata><path
     id="wolfs_head_erased_arising_vomiting_flames_of_fire_black_parts"
     style="display:inline;fill:#000000;stroke:none;stroke-width:0;stroke-linecap:square"
     d="m 722.53923,241.83626 c -7.62755,-0.0594 -16.32525,2.97797 -25.97743,10.50225 -53.12224,33.32854 -92.84295,68.91821 -113.82088,114.9569 78.71948,-19.84468 9.87647,24.78218 2.72408,73.29561 65.1882,-48.02527 14.44598,50.0194 2.26042,64.53215 17.9028,17.63269 65.17699,-44.48988 30.1969,18.74409 -15.12133,33.42284 -62.76723,53.20634 -108.31474,59.35054 -8.57342,-8.5571 -39.17961,-53.31091 8.90258,-69.73689 -19.25207,-9.99629 -74.17945,-18.41546 -18.1529,-55.16586 -67.06196,-7.619 -20.80527,-5.84959 -25.3863,-44.76793 -47.12143,27.83321 -102.13647,31.19518 -146.32456,161.40564 87.76593,-72.73367 38.35233,2.97062 31.98205,22.39558 72.70846,-35.68808 66.50811,27.45289 39.00672,63.17586 -21.0454,27.33698 -53.23518,33.51353 -119.01404,-18.44271 13.89824,66.67939 21.81768,97.6729 55.02674,113.92522 7.75278,3.79416 -50.39146,1.86609 -92.7468,-19.59031 60.19605,87.94267 127.39102,129.65898 204.17976,121.63383 10.21233,-1.06724 1.64389,4.42554 -15.84612,55.36296 148.08655,15.49008 209.81581,-80.71413 162.63444,30.8576 72.55313,-14.39245 76.61532,-24.8718 119.10675,-58.70137 149.85853,93.55355 267.18975,-63.63963 249.17959,-115.3974 C 754.31605,901.09926 807.92241,579.26618 802.7436,518.51182 c 0.52169,-27.22202 -36.31654,-9.51484 -34.70612,-70.24695 2.89298,-64.28186 -3.65712,-121.73907 -9.15761,-160.31603 -0.23503,-17.95176 -13.4578,-45.93952 -36.34064,-46.11258 z m 6.9436,276.26984 c -4.41776,30.26225 1.94462,49.59895 9.04164,84.72522 0,0 -64.80492,1.6576 -9.04164,-84.72522 z M 328.61162,850.88644 c -49.13661,13.81426 -31.65069,43.88772 -153.70521,2.62003 14.3388,36.72126 21.85905,59.27601 38.29618,76.58749 C 136.43765,958.07205 104.7806,987.10394 60.015628,1024 H 958.643 c -36.18401,-22.8626 -86.80955,-68.72639 -96.52565,-102.82019 -47.91256,2.09833 -77.99647,33.56967 -146.8926,-15.74179 -43.01632,33.22402 -62.42164,44.93834 -151.07728,68.19514 7.34427,-21.50816 15.7384,-37.76374 20.45973,-62.94404 -50.0109,9.79237 -69.06557,33.21678 -186.22391,13.63211 4.89619,-14.51364 14.51074,-31.12052 27.27573,-48.2571 -30.77592,5.24588 -52.10758,0.52704 -97.0474,-25.17763 z"
     sodipodi:nodetypes="ccccccccccccscscscccccccccccsccccccccccss"
     inkscape:label="wolfs_head_erased_arising_vomiting_flames_of_fire_black_parts" /><path
     style="display:inline;fill:#ff0000;stroke:none;stroke-width:0;stroke-linecap:square"
     d="m 548.93515,495.73723 c -13.4645,-70.46986 5.59563,-92.15293 -134.81957,-120.13102 -60.94221,-96.61349 -19.86196,-121.59466 49.83612,-179.93429 -7.51912,166.20746 111.91234,50.97262 9.44255,-38.29505 -46.75541,-75.366171 1.00783,-98.323081 40.595,-106.676967 C 538.77754,45.468984 557.32862,-2.9563353e-6 557.32862,-2.9563353e-6 571.5013,36.155103 584.05548,63.963444 562.9836,82.722312 442.67708,189.82292 672.02978,244.31669 617.37096,118.31175 c 78.12971,15.31487 55.30432,135.75143 39.10506,147.13059 -179.65006,89.38845 -98.20942,122.73556 -92.15222,153.57298 -1.45225,24.83334 1.1076,11.34147 -15.38865,76.72191 z"
     id="wolfs_head_erased_arising_vomiting_flames_of_fire_red_parts"
     sodipodi:nodetypes="ccccscscccc"
     inkscape:label="wolfs_head_erased_arising_vomiting_flames_of_fire_red_parts" /></svg>
