<?xml version="1.0" encoding="UTF-8" standalone="no"?>
<!-- Created with Inkscape (http://www.inkscape.org/) -->

<svg
   width="1024"
   height="1024"
   viewBox="0 0 1024 1024"
   version="1.1"
   id="svg1"
   inkscape:version="1.4 (86a8ad7, 2024-10-11)"
   sodipodi:docname="wolfs_head_erased.svg"
   xml:space="preserve"
   xmlns:inkscape="http://www.inkscape.org/namespaces/inkscape"
   xmlns:sodipodi="http://sodipodi.sourceforge.net/DTD/sodipodi-0.dtd"
   xmlns="http://www.w3.org/2000/svg"
   xmlns:svg="http://www.w3.org/2000/svg"
   xmlns:rdf="http://www.w3.org/1999/02/22-rdf-syntax-ns#"
   xmlns:cc="http://creativecommons.org/ns#"
   xmlns:dc="http://purl.org/dc/elements/1.1/"><title
     id="title1">Wolf's Head Erased</title><sodipodi:namedview
     id="namedview1"
     pagecolor="#ffffff"
     bordercolor="#000000"
     borderopacity="0.25"
     inkscape:showpageshadow="2"
     inkscape:pageopacity="0.0"
     inkscape:pagecheckerboard="0"
     inkscape:deskcolor="#d1d1d1"
     inkscape:document-units="px"
     inkscape:zoom="0.5"
     inkscape:cx="583"
     inkscape:cy="381"
     inkscape:window-width="1920"
     inkscape:window-height="1017"
     inkscape:window-x="-8"
     inkscape:window-y="-8"
     inkscape:window-maximized="1"
     inkscape:current-layer="svg1"
     showguides="false" /><defs
     id="defs1" /><metadata
     id="metadata1"><rdf:RDF><cc:Work
         rdf:about=""><dc:date>2024-11-17</dc:date><dc:creator><cc:Agent><dc:title>Jessie Kirk</dc:title></cc:Agent></dc:creator><dc:source>Adrian Wood, How to Paint Space Marines</dc:source><cc:license
           rdf:resource="http://creativecommons.org/licenses/by-nc-sa/4.0/" /><dc:title>Wolf's Head Erased</dc:title></cc:Work><cc:License
         rdf:about="http://creativecommons.org/licenses/by-nc-sa/4.0/"><cc:permits
           rdf:resource="http://creativecommons.org/ns#Reproduction" /><cc:permits
           rdf:resource="http://creativecommons.org/ns#Distribution" /><cc:requires
           rdf:resource="http://creativecommons.org/ns#Notice" /><cc:requires
           rdf:resource="http://creativecommons.org/ns#Attribution" /><cc:prohibits
           rdf:resource="http://creativecommons.org/ns#CommercialUse" /><cc:permits
           rdf:resource="http://creativecommons.org/ns#DerivativeWorks" /><cc:requires
           rdf:resource="http://creativecommons.org/ns#ShareAlike" /></cc:License></rdf:RDF></metadata><path
     id="wolfs_head_erased"
     style="display:inline;fill:#000000;stroke-width:0;stroke-linecap:square;stroke:none"
     d="m 511.5937,107.17356 c 29.78587,77.55885 6.12182,166.6257 -43.40236,199.38619 -45.14636,29.86449 -20.6972,-33.91332 -246.59625,83.92582 -10.60192,8.8928 -14.46087,16.81542 -12.97014,35.24096 C 117.03552,464.50048 86.57293,481.18058 0,536.5809 51.81864,598.5454 101.18039,644.8801 160.79124,677.3456 l 0.53512,-47.971 43.87351,18.092 -3.88814,-38.4822 41.01837,18.4285 1.30147,-33.4009 38.31757,16.254 1.02506,-48.8699 c 39.6925,6.1264 51.86958,25.3839 57.8722,65.9598 -24.12625,6.4923 -48.78214,1.1885 -74.45929,-2.1832 l 0.43969,25.0965 -44.68529,-7.3428 -2.06772,23.3385 -41.66454,-8.6461 c 6.56601,41.279 46.02741,75.3636 120.66928,111.8898 -8.65606,-18.2884 -9.79819,-28.7846 -23.46352,-46.5164 l 12.90049,-10.3583 c 35.19062,11.575 48.67443,22.3152 59.65364,36.3948 0.0856,-27.1131 -20.20134,-37.368 -23.54268,-46.5493 l 25.57656,-1.9691 c 10.11241,16.8435 24.0254,23.3285 28.57195,28.4838 79.51018,-91.0959 173.0783,-69.694 243.80131,2.9606 l 5.8989,-84.4551 37.653,19.0759 c 9.231,-38.761 11.783,-65.2772 7.656,-110.7172 l 54.3944,26.2247 c -4.7902,-54.1972 -15.1462,-87.24412 -47.7656,-142.55446 17.434,-0.64831 21.5099,2.04291 33.9346,3.62095 6.2488,-82.17477 10.7767,-161.14167 -17.2146,-190.97231 -2.1944,22.12002 -6.8933,31.16026 -13.2621,44.65321 -3.6393,-53.26277 -13.9975,-66.9939 -38.5729,-109.44544 l -14.6252,37.78222 C 610.21938,173.31399 591.47538,154.305 511.5937,107.1735 Z M 821.38288,295.6888 c -44.6704,23.74909 -66.8012,38.42264 -80.8638,56.35707 l -4.1115,106.67563 -33.4132,0.022 c 36.7966,46.2311 45.332,94.942 43.8029,165.4566 l -56.6062,-32.5062 c -1.5408,83.3705 -5.8645,84.9231 -17.9804,120.7056 l -27.7422,-27.8488 -10.6891,79.5297 c -64.174,-42.7041 -97.57503,-87.7633 -175.2005,-63.6689 -6.13618,1.9046 4.99884,37.4463 3.41856,70.8247 -35.01776,13.7126 -47.49386,14.902 -79.17212,17.7612 36.36247,45.5644 69.94202,31.0177 90.7201,47.3614 -1.84471,41.2495 -20.10867,58.0093 -40.04239,79.2218 l 64.75055,1.2459 C 726.44828,857.8707 951.80648,642.556 1024,378.82697 l -108.07202,47.7007 13.1147,-92.5936 -105.528,41.67632 z M 330.59073,418.56601 c -3.14234,33.09393 -24.81089,45.85113 -55.20014,38.86006 45.06853,-37.08168 35.95923,-27.19879 55.20014,-38.86006 z"
     sodipodi:nodetypes="csccccccccccccccccccccccccccccccccccccccccccccccsccccccccccccc"
     inkscape:label="wolfs_head_erased" /></svg>
